<?xml version="1.0" encoding="utf-8"?>
<!-- Generator: Adobe Illustrator 16.0.4, SVG Export Plug-In . SVG Version: 6.00 Build 0)  -->
<!DOCTYPE svg PUBLIC "-//W3C//DTD SVG 1.1//EN" "http://www.w3.org/Graphics/SVG/1.1/DTD/svg11.dtd">
<svg version="1.1" xmlns="http://www.w3.org/2000/svg" xmlns:xlink="http://www.w3.org/1999/xlink" x="0px" y="0px" width="500px"
	 height="500px" viewBox="0 0 500 500" enable-background="new 0 0 500 500" xml:space="preserve">
<g id="halftone">
	<g>
		<g>
			<path d="M115.178,276.732c0,0-5.351-4.641-10.501-9.746c-5.052-5.006-9.894-10.475-9.894-10.475s-7.223-0.453-14.653-0.443
				c-7.292,0.016-14.759,0.508-14.759,0.508s0.817-0.877,2.249-2.414c0.72-0.76,1.569-1.686,2.583-2.719
				c1.042-1.007,2.218-2.143,3.5-3.383c5.021-4.957,12.239-10.937,19.557-16.166c1.858-1.259,3.718-2.517,5.548-3.755
				c1.807-1.219,3.716-2.289,5.47-3.359c3.486-2.161,6.952-3.872,9.79-5.365c1.407-0.759,2.781-1.357,3.965-1.905
				c1.183-0.536,2.213-1.004,3.062-1.389c0.841-0.377,1.502-0.673,1.952-0.875c0.444-0.204,0.699-0.295,0.699-0.295
				s-0.104,0.236-0.263,0.711c-0.161,0.469-0.397,1.156-0.698,2.031c-0.294,0.867-0.65,1.919-1.06,3.126
				c-0.397,1.204-0.871,2.526-1.271,4.045c-0.825,3.015-1.854,6.392-2.595,10.141c-0.382,1.865-0.843,3.713-1.148,5.669
				c-0.3,1.924-0.604,3.879-0.908,5.833c-0.991,7.837-1.385,15.39-1.158,21.023c0.037,1.385,0.071,2.654,0.102,3.779
				c0.063,1.127,0.16,2.117,0.221,2.918C115.101,275.821,115.178,276.732,115.178,276.732z"/>
		</g>
		<g>
			<path d="M168.301,212.958c0,0-1.634-6.846-2.844-13.964c-0.308-1.776-0.597-3.563-0.852-5.249
				c-0.25-1.677-0.449-3.221-0.62-4.565c-0.312-2.693-0.521-4.488-0.521-4.488s-1.43-1.136-3.574-2.84
				c-1.081-0.841-2.364-1.835-3.738-2.855c-1.369-1.014-2.846-2.084-4.343-3.143c-5.964-4.25-12.351-8.228-12.351-8.228
				s1.183-0.227,3.253-0.623c1.025-0.189,2.271-0.419,3.698-0.684c0.708-0.126,1.462-0.262,2.256-0.403
				c0.797-0.132,1.65-0.234,2.528-0.357c3.52-0.474,7.544-1.032,11.895-1.299c4.289-0.4,8.914-0.451,13.391-0.523
				c2.263,0.021,4.521,0.112,6.704,0.185c1.097,0.047,2.166,0.063,3.237,0.143c1.066,0.089,2.121,0.177,3.158,0.264
				c2.064,0.188,4.022,0.336,5.882,0.562c1.849,0.263,3.597,0.511,5.21,0.739c3.18,0.415,5.82,1.02,7.635,1.369
				c1.809,0.371,2.842,0.583,2.842,0.583s-0.863,0.61-2.372,1.678c-1.493,1.083-3.629,2.519-6.046,4.509
				c-1.196,0.964-2.494,2.007-3.865,3.11c-1.344,1.127-2.716,2.394-4.122,3.646c-0.695,0.63-1.403,1.271-2.119,1.918
				c-0.706,0.653-1.396,1.372-2.094,2.061c-1.39,1.4-2.786,2.779-4.134,4.201c-2.649,2.961-5.225,5.785-7.418,8.671
				c-2.258,2.755-4.147,5.516-5.741,7.799c-0.396,0.576-0.782,1.108-1.129,1.643c-0.339,0.542-0.661,1.056-0.963,1.538
				c-0.593,0.956-1.11,1.789-1.535,2.475C168.777,212.184,168.301,212.958,168.301,212.958z"/>
		</g>
		<g>
			<path d="M248.588,191.775c0,0,0.684-1.655,1.71-4.138c1.05-2.456,2.507-5.675,4.067-8.912c1.556-3.231,3.212-6.455,4.5-8.868
				c0.644-1.21,1.191-2.211,1.574-2.891c0.387-0.688,0.608-1.08,0.608-1.08s-0.122-0.441-0.337-1.213
				c-0.217-0.78-0.531-1.865-0.926-3.161c-0.785-2.6-1.895-6.072-3.104-9.552c-1.205-3.474-2.51-6.979-3.537-9.568
				c-1.055-2.564-1.758-4.274-1.758-4.274s0.276,0.116,0.794,0.335c0.516,0.229,1.274,0.513,2.226,0.981
				c1.904,0.902,4.603,2.195,7.758,3.752c1.574,0.802,3.252,1.76,5.008,2.725c1.75,1.002,3.594,1.946,5.437,3.128
				c3.694,2.312,7.542,4.702,11.186,7.412c3.657,2.553,7.233,5.419,10.415,8.067c1.543,1.385,3.035,2.724,4.449,3.993
				c1.392,1.252,2.624,2.574,3.773,3.709c2.307,2.26,4.053,4.329,5.283,5.712c0.607,0.694,1.084,1.24,1.41,1.613
				c0.325,0.365,0.486,0.581,0.486,0.581s-0.258-0.029-0.758-0.042c-0.494-0.017-1.22-0.042-2.144-0.073
				c-1.842-0.047-4.412-0.183-7.519-0.046c-1.549,0.062-3.175,0.053-4.928,0.207c-1.721,0.153-3.535,0.313-5.412,0.48
				c-3.748,0.483-7.573,1.042-11.476,1.886c-3.843,0.699-7.632,1.757-11.065,2.686c-1.715,0.438-3.375,1.064-4.912,1.549
				c-1.542,0.523-2.973,0.971-4.286,1.466c-2.577,1.033-4.724,1.894-6.227,2.496c-0.735,0.283-1.312,0.588-1.7,0.76
				C248.795,191.677,248.588,191.775,248.588,191.775z"/>
		</g>
		<g>
			<path d="M322.51,222.022c0,0,6.213-3.276,12.869-6.1c6.524-2.785,13.481-5.106,13.48-5.107c0,0,3.236-6.442,6.041-13.349
				c2.762-6.779,5.049-13.983,5.049-13.982c0,0,0.525,1.122,1.446,3.085c0.448,0.982,1.009,2.15,1.598,3.52
				c0.558,1.378,1.185,2.933,1.87,4.628c2.657,6.772,5.508,15.854,7.203,24.865c1.776,9.007,2.352,17.91,2.354,24.396
				c-0.009,1.632,0.026,3.088-0.038,4.403c-0.066,1.303-0.124,2.44-0.172,3.375c-0.107,1.841-0.17,2.894-0.17,2.894
				s-0.727-0.767-2-2.107c-0.633-0.654-1.399-1.45-2.279-2.364c-0.873-0.901-1.954-1.867-3.068-2.921
				c-4.506-4.21-10.746-9.282-17.34-13.328c-6.561-4.11-13.344-7.219-18.4-9.125c-1.262-0.46-2.418-0.883-3.443-1.257
				c-1.031-0.347-1.954-0.606-2.69-0.835C323.35,222.274,322.51,222.022,322.51,222.022z"/>
		</g>
		<g>
			<path d="M354.048,293.666c0,0.001,6.733,1.983,13.478,4.604c6.613,2.557,13.212,5.751,13.212,5.75c0,0,6.817-2.354,13.65-5.345
				c6.702-2.93,13.37-6.499,13.37-6.499s-0.406,1.172-1.117,3.223c-0.363,1.018-0.781,2.247-1.309,3.641
				c-0.564,1.376-1.201,2.93-1.896,4.624c-2.84,6.708-7.078,15.22-12.214,22.839c-2.585,3.811-5.187,7.444-7.892,10.742
				c-1.275,1.655-2.703,3.152-3.949,4.57c-1.236,1.424-2.549,2.68-3.697,3.835c-0.578,0.57-1.131,1.117-1.656,1.637
				c-0.552,0.497-1.074,0.968-1.566,1.411c-0.975,0.862-1.825,1.614-2.525,2.233c-0.699,0.607-1.297,1.051-1.68,1.364
				c-0.389,0.308-0.596,0.473-0.596,0.473s0.107-1.048,0.211-2.871c0.025-0.912,0.058-2.02,0.094-3.289
				c0.012-0.625,0.025-1.289,0.038-1.99c-0.02-0.703-0.04-1.442-0.062-2.215c-0.059-1.535-0.07-3.151-0.258-4.889
				c-0.174-1.732-0.268-3.49-0.58-5.34c-0.49-3.621-1.293-7.529-2.158-11.269c-1.768-7.519-4.519-14.484-6.795-19.368
				c-0.58-1.208-1.111-2.315-1.584-3.297c-0.502-0.967-0.977-1.796-1.346-2.473C354.475,294.431,354.048,293.666,354.048,293.666z"
				/>
		</g>
		<g>
			<path d="M325.922,362.552c0,0,0.697,1.595,1.668,4.054c0.959,2.441,2.229,5.837,3.273,9.204c1.07,3.385,2.017,6.867,2.668,9.521
				c0.636,2.627,0.991,4.399,0.991,4.399s1.521,1.015,3.862,2.45c2.323,1.412,5.499,3.24,8.798,4.971
				c3.31,1.759,6.642,3.287,9.237,4.442c2.582,1.14,4.353,1.854,4.353,1.854s-1.204,0.445-3.312,1.226
				c-2.066,0.801-5.137,1.737-8.707,2.799c-1.826,0.475-3.785,0.968-5.831,1.462c-2.077,0.446-4.263,0.859-6.481,1.275
				c-2.268,0.326-4.557,0.682-6.889,0.93c-1.164,0.102-2.338,0.204-3.518,0.307c-1.164,0.105-2.333,0.186-3.513,0.212
				c-9.374,0.434-18.345-0.49-24.757-1.741c-3.207-0.556-5.824-1.301-7.613-1.734c-0.896-0.212-1.602-0.464-2.076-0.599
				c-0.475-0.146-0.729-0.224-0.729-0.224s0.229-0.13,0.656-0.375c0.424-0.256,1.052-0.576,1.826-1.089
				c1.547-1.016,3.748-2.334,6.206-4.194c4.962-3.587,10.929-8.885,15.754-14.673c0.618-0.697,1.204-1.435,1.771-2.184
				c0.561-0.731,1.118-1.461,1.672-2.185c1.073-1.466,2.05-2.964,2.986-4.342c0.887-1.469,1.723-2.843,2.473-4.152
				c0.695-1.335,1.354-2.597,1.961-3.762c1.095-2.399,1.963-4.284,2.461-5.703C325.627,363.334,325.922,362.552,325.922,362.552z"/>
		</g>
		<g>
			<path d="M255.543,378.565c0,0-0.936,1.483-2.34,3.708c-1.413,2.188-3.431,5.131-5.605,7.938c-2.157,2.79-4.505,5.526-6.346,7.539
				c-1.821,1.97-3.113,3.252-3.114,3.252c0,0-0.011,1.813,0.093,4.58c0.115,2.722,0.387,6.382,0.843,10.105
				c0.452,3.701,1.116,7.372,1.69,10.181c0.602,2.779,1.004,4.632,1.004,4.632s-0.268-0.175-0.768-0.503
				c-0.514-0.356-1.269-0.881-2.229-1.547c-0.949-0.684-2.107-1.449-3.377-2.446c-1.27-0.998-2.691-2.089-4.182-3.341
				c-5.987-5.014-13.034-12.397-18.294-20.434c-2.68-3.978-4.892-8.155-6.726-12.017c-1.757-3.947-3.153-7.579-4.081-10.765
				c-0.234-0.783-0.459-1.535-0.674-2.249c-0.18-0.724-0.352-1.409-0.512-2.055c-0.311-1.284-0.59-2.37-0.749-3.304
				c-0.339-1.825-0.533-2.867-0.533-2.867s0.885,0.565,2.434,1.556c0.75,0.498,1.735,1.036,2.824,1.653
				c0.544,0.302,1.121,0.624,1.73,0.963c0.625,0.31,1.282,0.635,1.968,0.975c2.689,1.365,5.96,2.664,9.361,3.824
				c3.482,1.081,7.105,2.023,10.739,2.544c7.249,1.133,14.156,0.751,18.988-0.061c2.447-0.437,4.376-0.872,5.73-1.27
				c0.663-0.182,1.184-0.324,1.539-0.422C255.34,378.625,255.543,378.565,255.543,378.565z"/>
		</g>
		<g>
			<path d="M213.477,329.657c0,0-1.719-0.272-4.318-0.808c-2.553-0.535-5.962-1.371-9.395-2.404
				c-3.396-1.024-6.744-2.25-9.281-3.259c-1.273-0.503-2.309-0.944-3.027-1.259c-0.722-0.32-1.135-0.502-1.135-0.502
				s-0.427,0.164-1.173,0.451c-0.751,0.292-1.814,0.717-3.061,1.256c-2.5,1.072-5.87,2.624-9.167,4.373
				c-3.263,1.737-6.516,3.674-8.931,5.215c-2.371,1.535-3.939,2.642-3.939,2.643c0,0,0.07-0.33,0.201-0.945
				c0.134-0.615,0.313-1.514,0.624-2.649c0.302-1.122,0.668-2.483,1.088-4.046c0.468-1.545,1.038-3.268,1.652-5.11
				c2.523-7.399,7.045-16.567,12.616-24.321c2.84-4.023,5.996-7.68,9.135-10.731c3.116-3.075,6.291-5.519,9.024-7.411
				c1.38-0.941,2.637-1.759,3.8-2.419c0.567-0.332,1.099-0.643,1.59-0.93c0.505-0.264,0.969-0.506,1.388-0.725
				c0.828-0.421,1.479-0.752,1.922-0.978c0.455-0.206,0.697-0.316,0.697-0.316s-0.084,0.248-0.242,0.713
				c-0.137,0.472-0.338,1.164-0.593,2.046c-0.12,0.435-0.255,0.915-0.4,1.438c-0.12,0.531-0.25,1.105-0.389,1.719
				c-0.29,1.201-0.532,2.585-0.758,4.065c-0.433,2.972-0.737,6.372-0.604,9.923c0.104,3.544,0.569,7.175,1.363,10.624
				c1.568,7.223,4.267,13.549,6.783,17.769c0.654,1.062,1.225,2.003,1.754,2.816c0.561,0.794,1.051,1.486,1.454,2.056
				c0.383,0.559,0.739,0.981,0.968,1.27C213.354,329.505,213.477,329.657,213.477,329.657z"/>
		</g>
		<g>
			<path d="M243.496,280.544c0,0-0.052-1.72,0.021-4.349c0.075-2.602,0.328-6.084,0.824-9.607c0.493-3.455,1.221-7.037,1.896-9.613
				c0.666-2.605,1.216-4.355,1.216-4.355s-0.829-1.6-2.232-3.978c-1.403-2.409-3.402-5.438-5.654-8.49
				c-2.227-2.991-4.694-5.908-6.645-8.035c-1.941-2.104-3.335-3.472-3.335-3.472s0.354,0.017,1.019,0.046
				c0.665,0.043,1.625,0.052,2.857,0.181c2.453,0.208,5.923,0.577,9.941,1.39c8.049,1.535,18.154,5.025,26.533,10.278
				c1.061,0.611,2.076,1.33,3.08,1.998l1.488,1.017c0.494,0.377,0.986,0.753,1.478,1.127c0.948,0.746,1.89,1.486,2.819,2.218
				c0.449,0.374,0.906,0.705,1.329,1.105c0.417,0.4,0.83,0.798,1.241,1.192c3.289,3.05,5.834,6.247,7.772,8.983
				c0.933,1.43,1.743,2.715,2.437,3.836c0.673,1.146,1.149,2.23,1.574,3.061c0.401,0.836,0.717,1.493,0.934,1.941
				c0.211,0.44,0.312,0.683,0.312,0.683s-0.248-0.092-0.726-0.242c-0.47-0.147-1.159-0.364-2.036-0.64
				c-0.879-0.251-1.88-0.611-3.093-0.881c-1.231-0.245-2.594-0.501-4.029-0.753c-2.947-0.387-6.284-0.615-9.726-0.311
				c-0.419,0.025-0.842,0.053-1.268,0.078c-0.422,0.029-0.871,0.133-1.301,0.195c-0.846,0.15-1.702,0.301-2.565,0.453l-1.249,0.232
				l-1.314,0.322c-0.873,0.229-1.723,0.408-2.572,0.699c-3.378,0.994-6.505,2.361-9.18,3.861c-2.679,1.506-4.916,3.061-6.666,4.573
				c-1.757,1.461-3.036,2.807-3.892,3.742c-0.434,0.444-0.744,0.867-0.962,1.116C243.61,280.405,243.496,280.544,243.496,280.544z"
				/>
		</g>
		<g>
			<path d="M283.874,304.289c0,0,1.702,0.188,4.287,0.668c2.574,0.477,5.841,1.305,9.21,2.442c1.669,0.564,3.355,1.198,4.906,1.849
				c1.504,0.646,2.904,1.31,4.102,1.911c2.396,1.205,3.979,2.14,3.979,2.14s1.742-0.444,4.375-1.308
				c1.317-0.433,2.857-0.976,4.51-1.622c1.604-0.648,3.286-1.403,4.983-2.227c3.366-1.637,6.81-3.588,9.227-5.188
				c2.409-1.595,3.994-2.79,3.994-2.79s-0.075,0.37-0.218,1.064c-0.164,0.691-0.312,1.699-0.687,2.966
				c-0.368,1.267-0.827,2.788-1.372,4.494c-0.277,0.853-0.559,1.753-0.892,2.687c-0.386,0.918-0.792,1.884-1.216,2.892
				c-0.889,1.983-1.717,4.11-2.975,6.203c-0.598,1.037-1.211,2.103-1.837,3.191c-0.315,0.529-0.635,1.064-0.957,1.605l-0.061,0.101
				l-0.015,0.025c-0.555,1.839-0.162,0.52-0.291,0.935l-0.029,0.034l-0.121,0.137l-0.244,0.274l-0.49,0.553
				c-0.657,0.739-1.324,1.492-2,2.254l-0.254,0.285l-0.347,0.457l-0.714,0.935c-0.481,0.607-0.966,1.218-1.451,1.83
				c-0.977,1.195-1.967,2.425-2.975,3.275c-1.004,0.934-2.008,1.842-3.006,2.719c-1.027,0.857-2.137,1.63-3.184,2.401l-1.578,1.122
				c-0.535,0.355-1.106,0.671-1.65,0.996c-1.1,0.642-2.178,1.252-3.23,1.831c-1.111,0.521-2.205,1.003-3.262,1.461
				c-0.525,0.223-1.047,0.444-1.562,0.663c-0.533,0.189-1.069,0.358-1.59,0.529c-1.027,0.319-2.033,0.632-3.013,0.937
				c-1.994,0.481-3.847,0.847-5.523,1.109c-1.729,0.174-3.251,0.32-4.583,0.392c-1.369-0.006-2.525-0.03-3.461-0.057
				c-0.926-0.001-1.668-0.108-2.166-0.171c-0.496-0.062-0.76-0.096-0.76-0.096s0.201-0.167,0.579-0.48
				c0.375-0.311,0.925-0.748,1.558-1.423c0.617-0.638,1.367-1.412,2.227-2.3c0.792-0.95,1.627-2.05,2.49-3.183
				c0.814-1.222,1.623-2.551,2.387-3.925c0.332-0.72,0.675-1.458,1.024-2.213c0.163-0.365,0.327-0.735,0.492-1.108
				c0.132-0.394,0.265-0.792,0.397-1.193c0.245-0.771,0.494-1.555,0.746-2.349c0.16-0.807,0.322-1.623,0.486-2.446
				c0.07-0.402,0.16-0.783,0.207-1.189l0.094-1.232c0.046-0.815,0.131-1.575,0.123-2.362c-0.121-1.571-0.031-3.227-0.588-4.216
				l-0.296-0.772l-0.141-0.357c-0.022-0.065-0.048-0.099-0.065-0.188l-0.035-0.381c-0.094-1.014-0.188-2.016-0.277-3l-0.068-0.736
				l-0.034-0.365l-0.017-0.183l-0.004-0.045c-0.124,0.401,0.273-0.932-0.278,0.895l-0.007-0.016l-0.023-0.063
				c-0.132-0.33-0.262-0.657-0.391-0.981c-0.252-0.618-0.498-1.223-0.738-1.812c-0.399-1.133-1.112-2.174-1.604-3.065
				c-0.257-0.435-0.503-0.853-0.738-1.249c-0.278-0.388-0.567-0.745-0.818-1.072c-0.495-0.624-0.927-1.169-1.282-1.617
				c-0.338-0.429-0.729-0.743-0.93-0.957C283.99,304.401,283.874,304.289,283.874,304.289z"/>
		</g>
		<g>
			<path d="M260.587,322.989c0,0-1.187,1.201-3.208,2.803c-0.983,0.768-2.18,1.629-3.538,2.487
				c-1.346,0.849-2.909,1.739-4.432,2.452c-3.074,1.472-6.534,2.631-9.089,3.201c-2.596,0.609-4.438,0.844-4.438,0.844
				s-1.098,1.404-2.576,3.771c-1.525,2.39-3.182,5.67-4.568,9.345c-1.381,3.637-2.262,7.486-2.807,10.556
				c-0.473,2.991-0.6,5.09-0.6,5.09s-0.255-0.363-0.732-1.044c-0.233-0.341-0.521-0.76-0.858-1.254
				c-0.326-0.5-0.666-1.104-1.054-1.763c-1.553-2.628-3.566-6.465-5.092-11.216c-1.609-4.694-2.639-10.335-2.686-16.125
				c-0.05-5.79,0.853-11.746,2.866-17.057c0.448-1.329,1.085-2.607,1.634-3.853c0.53-1.251,1.24-2.422,1.908-3.559
				c0.338-0.559,0.674-1.115,1.008-1.669l0.126-0.203l0.031-0.051l0.016-0.025c-0.026,0.098,0.292-0.949,0.165-0.515l0.063-0.072
				l0.255-0.287l0.509-0.573c0.338-0.381,0.674-0.759,1.007-1.135c0.143-0.146,0.385-0.467,0.607-0.744l0.669-0.825
				c0.445-0.539,0.89-1.058,1.329-1.555c0.436-0.517,0.893-0.85,1.328-1.263c0.883-0.779,1.703-1.525,2.621-2.138
				c1.73-1.299,3.5-2.255,5.089-3.043c0.83-0.359,1.611-0.684,2.341-0.976c0.73-0.292,1.479-0.474,2.133-0.676
				c1.299-0.422,2.505-0.573,3.43-0.746c0.919-0.187,1.693-0.176,2.181-0.228c0.494-0.031,0.758-0.048,0.758-0.048
				s-0.169,0.204-0.483,0.585c-0.3,0.397-0.783,0.888-1.263,1.667c-0.484,0.766-1.099,1.6-1.606,2.705
				c-0.259,0.544-0.561,1.066-0.793,1.684c-0.217,0.601-0.445,1.232-0.684,1.892c-0.377,1.348-0.713,2.741-0.82,4.225
				c-0.106,0.705-0.072,1.483-0.062,2.217c0.025,0.358-0.028,0.755,0.068,1.064c0.077,0.302,0.154,0.605,0.232,0.912l0.115,0.425
				c0.037,0.142,0.078,0.235,0.096,0.534c0.047,0.5,0.093,1.004,0.14,1.511l0.071,0.763l0.035,0.384l0.009,0.096
				c-0.132,0.449,0.181-0.585,0.151-0.472l0.006,0.018l0.013,0.035l0.05,0.143c0.133,0.369,0.265,0.74,0.398,1.112
				c0.268,0.727,0.492,1.42,0.884,2.099c0.372,0.675,0.641,1.312,1.068,1.919c1.505,2.435,3.591,4.259,5.558,5.422
				c1.992,1.17,3.888,1.735,5.528,1.854c1.576,0.167,2.841-0.062,3.652-0.273c0.202-0.052,0.36-0.084,0.519-0.138
				c0.159-0.062,0.294-0.115,0.403-0.157C260.476,323.035,260.587,322.989,260.587,322.989z"/>
		</g>
	</g>
</g>
<g id="textcaptain">
	<path d="M80.829,67.825h10.07c-0.248,8.787-2.754,15.416-7.518,19.886c-4.765,4.471-11.726,6.706-20.884,6.706
		c-10.334,0-18.571-3.063-24.712-9.189c-6.142-6.126-9.212-14.34-9.212-24.643c0-5.136,0.789-9.73,2.367-13.784
		c1.578-4.053,4.007-7.704,7.287-10.953c3.156-3.093,6.628-5.367,10.418-6.822c3.79-1.454,8.145-2.182,13.064-2.182
		c3.464,0,6.721,0.503,9.769,1.508c3.047,1.006,5.979,2.561,8.794,4.664l1.903-5.059H90.9v25.989h-9.328
		c-0.371-5.6-1.972-9.962-4.803-13.087s-6.583-4.687-11.254-4.687c-5.105,0-9.089,2.127-11.95,6.381
		c-2.862,4.254-4.293,10.233-4.293,17.938c0,7.828,1.416,13.854,4.247,18.077s6.861,6.335,12.09,6.335
		c4.455,0,8.021-1.508,10.697-4.525C78.98,77.362,80.488,73.178,80.829,67.825z"/>
	<path d="M88.399,92.515v-8.354h2.32c2.072,0,3.589-0.332,4.548-0.998c0.958-0.665,1.902-2.39,2.831-5.174l16.382-49.24h18.981
		l15.687,49.519c0.804,2.413,1.647,3.999,2.529,4.757c0.881,0.759,2.219,1.137,4.014,1.137h3.249v8.354h-35.178v-8.354h2.691
		c2.29,0,3.829-0.163,4.618-0.487c0.789-0.325,1.184-0.92,1.184-1.787c-0.031-0.279-0.139-0.727-0.325-1.346
		c-0.093-0.309-0.155-0.541-0.186-0.696l-2.459-7.843h-18.332l-2.413,7.333c-0.124,0.434-0.232,0.882-0.325,1.346
		c-0.093,0.464-0.139,0.867-0.139,1.207c0,0.866,0.325,1.461,0.975,1.787c0.65,0.325,2.042,0.487,4.177,0.487h3.109v8.354H88.399
		V92.515z M126.64,63.695l-6.404-20.142l-6.543,20.142H126.64z"/>
	<path d="M198.853,28.749c8.755,0,15.145,1.462,19.167,4.386c4.022,2.924,6.033,7.573,6.033,13.946c0,2.662-0.526,5.113-1.578,7.356
		c-1.052,2.244-2.568,4.169-4.548,5.778c-1.918,1.547-4.309,2.661-7.17,3.342c-2.862,0.681-6.83,1.021-11.904,1.021h-12.159V78.64
		c0,2.414,0.348,3.938,1.044,4.571c0.696,0.635,2.312,0.952,4.85,0.952h4.548v8.354h-37.638v-8.354h3.527
		c2.475,0,4.061-0.309,4.757-0.928c0.696-0.619,1.044-2.15,1.044-4.595V42.625c0-2.475-0.348-4.015-1.044-4.618
		c-0.696-0.604-2.282-0.905-4.757-0.905h-3.527v-8.354L198.853,28.749L198.853,28.749z M186.694,56.315h5.894
		c4.703,0,7.998-0.75,9.885-2.25c1.887-1.5,2.831-4.076,2.831-7.727c0-3.279-0.991-5.639-2.97-7.078
		c-1.98-1.438-5.229-2.158-9.746-2.158h-5.894V56.315L186.694,56.315z"/>
	<path d="M287.404,28.749v24.597h-8.631c0-5.476-1.029-9.521-3.086-12.136c-2.059-2.614-5.237-3.921-9.537-3.921h-0.976v40.515
		c0,2.197,0.108,3.643,0.325,4.339c0.216,0.696,0.619,1.137,1.207,1.323c0.648,0.278,1.531,0.48,2.645,0.604
		c1.114,0.124,3.078,0.217,5.895,0.278v8.168h-37.823v-8.168c1.979,0,3.689-0.07,5.128-0.209c1.439-0.139,2.622-0.363,3.55-0.673
		c0.557-0.186,0.943-0.626,1.161-1.323c0.216-0.696,0.325-2.111,0.325-4.246v-1.253V37.288h-0.928c-4.332,0-7.542,1.315-9.63,3.945
		c-2.088,2.63-3.133,6.667-3.133,12.112h-8.539V28.749H287.404z"/>
	<path d="M279.025,92.515v-8.354h2.32c2.071,0,3.588-0.332,4.547-0.998c0.959-0.665,1.902-2.39,2.832-5.174l16.381-49.24h18.981
		l15.687,49.519c0.805,2.413,1.647,3.999,2.529,4.757c0.881,0.759,2.219,1.137,4.014,1.137h3.25v8.354h-35.178v-8.354h2.69
		c2.29,0,3.829-0.163,4.618-0.487c0.789-0.325,1.184-0.92,1.184-1.787c-0.031-0.279-0.139-0.727-0.324-1.346
		c-0.094-0.309-0.156-0.541-0.187-0.696l-2.459-7.843H301.58l-2.413,7.333c-0.124,0.434-0.231,0.882-0.325,1.346
		c-0.093,0.464-0.139,0.867-0.139,1.207c0,0.866,0.324,1.461,0.975,1.787c0.65,0.325,2.042,0.487,4.178,0.487h3.108v8.354h-27.938
		V92.515z M317.266,63.695l-6.404-20.142l-6.543,20.142H317.266z"/>
	<path d="M350.311,92.515v-8.354h3.897c2.476,0,4.062-0.309,4.756-0.928c0.696-0.619,1.045-2.15,1.045-4.595V42.625
		c0-2.475-0.349-4.015-1.045-4.618c-0.694-0.604-2.28-0.905-4.756-0.905h-3.897v-8.354h37.637v8.354h-3.897
		c-2.507,0-4.114,0.318-4.827,0.952c-0.712,0.634-1.066,2.158-1.066,4.571v36.013c0,2.414,0.355,3.938,1.066,4.571
		c0.713,0.635,2.32,0.952,4.827,0.952h3.897v8.354H350.311z"/>
	<path d="M399.086,42.625c0-2.413-0.354-3.937-1.067-4.571c-0.712-0.634-2.319-0.952-4.825-0.952h-3.342v-8.354h30.49l24.457,44.46
		V42.625c0-2.413-0.354-3.937-1.065-4.571c-0.714-0.634-2.32-0.952-4.826-0.952h-3.621v-8.354h29.1v8.354h-2.971
		c-2.506,0-4.115,0.318-4.826,0.952c-0.713,0.634-1.067,2.158-1.067,4.571v49.89h-19.584l-26.129-47.43v33.554
		c0,2.414,0.355,3.938,1.067,4.571c0.712,0.635,2.32,0.952,4.827,0.952h3.619v8.354h-29.471v-8.354h3.342
		c2.507,0,4.114-0.317,4.826-0.952c0.713-0.634,1.067-2.158,1.067-4.571L399.086,42.625L399.086,42.625z"/>
</g>
</svg>
